<svg version="1.2" xmlns="http://www.w3.org/2000/svg" viewBox="0 0 220 256" width="220" height="256">
	<title>Frame 3(1)</title>
	<defs>
		<linearGradient id="g1" x2="1" gradientUnits="userSpaceOnUse" gradientTransform="matrix(0,217,-219,0,110,.5)">
			<stop offset="0" stop-color="#ebebeb" stop-opacity="1"/>
			<stop offset=".779" stop-color="#ebebeb" stop-opacity="0"/>
		</linearGradient>
		<linearGradient id="g2" x2="1" gradientUnits="userSpaceOnUse" gradientTransform="matrix(0,95,-95,0,115.5,67)">
			<stop offset="0" stop-color="#d85a5a"/>
			<stop offset="1" stop-color="#a71b1b"/>
		</linearGradient>
		<linearGradient id="g3" x2="1" gradientUnits="userSpaceOnUse" gradientTransform="matrix(0,95,-95,0,104.5,67)">
			<stop offset="0" stop-color="#fe8c9b"/>
			<stop offset="1" stop-color="#dc3131"/>
		</linearGradient>
	</defs>
	<style>
		.s0 { fill: url(#g1) } 
		.s1 { fill: #1a1a1a } 
		.s2 { fill: #3d3d3d } 
		.s3 { fill: url(#g2) } 
		.s4 { fill: url(#g3) } 
		.s5 { fill: #c23d3d } 
		.s6 { fill: #ffffff } 
	</style>
	<path fillRule="evenodd" class="s0" d="m110 217.5c-60.6 0-109.5-48.5-109.5-108.5 0-60 48.9-108.5 109.5-108.5 60.6 0 109.5 48.5 109.5 108.5 0 60-48.9 108.5-109.5 108.5z"/>
	<path class="s1" d="m66.4 247.2q2.1 0 2.2-1.7h-1.1q-1.8 0-2.5-0.7-0.8-0.8-0.8-2.3 0-1 0.4-1.8 0.4-0.8 1.2-1.3 0.7-0.4 1.7-0.4 1.4 0 2.3 0.9 0.8 1 0.8 2.7v0.8h1.3q0.1 0 0.1 1.1 0 1-0.1 1h-1.3q-0.2 1.8-1.3 2.8-1.2 1-3 1h-1.7q-2.1 0-3.2-1.2-1.1-1.2-1.1-3.3v-3.2h2v3.1q0 1.3 0.6 1.9 0.5 0.6 1.7 0.6zm-0.1-4.8q0 0.5 0.3 0.8 0.3 0.2 1 0.2h1v-0.8q0-0.8-0.3-1.2-0.3-0.4-0.9-0.4-0.5 0-0.8 0.4-0.3 0.4-0.3 1zm3.4-6.6v1.8h-4.5v-1.8zm4.5 7.6q-0.6-0.4-0.9-0.8-0.2-0.5-0.2-1.2 0-0.9 0.4-1.6 0.4-0.8 1.1-1.2 0.8-0.4 1.7-0.4 1.6 0 2.4 0.9 0.9 1 0.9 2.6v0.6q0 1.6-1.1 2.4-1.1 0.8-3.3 0.8h-3.3q-0.2 0-0.2-1 0-1.1 0.2-1.1h1.8zm3-0.2q0.4-0.4 0.4-1.1v-0.3q0-1.6-1.3-1.6-0.5 0-0.9 0.4-0.3 0.3-0.3 0.8 0 0.6 0.5 1 0.4 0.4 1.6 0.8zm-2-6.5v-1.8h2.1v1.8zm14.2 6.7q0.2 0 0.2 1.1 0 1-0.2 1h-1.2q-0.2 1.8-1.3 2.8-1.1 1-2.9 1h-2.2l-0.1-2.1h2.5q0.9 0 1.4-0.5 0.6-0.4 0.6-1.2h-1.2q-1.7 0-2.4-0.7-0.8-0.7-0.8-2.3 0-1 0.4-1.8 0.4-0.8 1.1-1.3 0.8-0.4 1.7-0.4 1.5 0 2.3 0.9 0.9 1 0.9 2.7v0.8zm-5.6-1q0 0.5 0.3 0.8 0.3 0.2 1 0.2h1v-0.8q0-0.8-0.3-1.2-0.3-0.4-0.9-0.4-0.5 0-0.8 0.4-0.3 0.4-0.3 1zm6 1q0.5 0 0.6-0.2 0.2-0.2 0.2-0.6v-0.4q0-1.6 0.9-2.5 0.9-0.9 2.4-0.9 1.5 0 2.3 0.9 0.9 0.9 0.9 2.5 0 1.6-0.9 2.4-0.8 0.9-2.4 0.9-0.8 0-1.3-0.2-0.5-0.2-0.8-0.6-0.3 0.4-0.7 0.6-0.5 0.2-1.2 0.2h-0.4q-0.2 0-0.2-1 0-1.1 0.2-1.1zm5.2-1.2q0-1.4-1.2-1.4-1.2 0-1.2 1.4 0 0.6 0.3 0.9 0.3 0.3 0.9 0.3 0.6 0 0.9-0.3 0.3-0.3 0.3-0.9zm7.6 1.2q0.1 0 0.1 0.2 0.1 0.2 0.1 0.9 0 0.6-0.1 0.8 0 0.2-0.1 0.2h-0.5q-1.4 0-2.1-0.8-0.7-0.8-0.7-2.2v-7.3h2.1v7.2q0 0.5 0.2 0.7 0.2 0.3 0.6 0.3zm4.5-0.7q0 1.3-0.8 2-0.8 0.8-2.1 0.8h-1.6q-0.2 0-0.2-1 0-1.1 0.2-1.1h1.6q0.4 0 0.6-0.2 0.3-0.3 0.3-0.6v-2.6h2zm-2.8-4.3v-1.8h2.2v1.8zm16.7 5q0.4 0 0.6-0.2 0.3-0.2 0.3-0.6v-2.6h2v2.5q0 0.9 0.9 0.9h0.6q0.2 0 0.2 1.1 0 1-0.2 1h-0.7q-1.3 0-1.8-0.7-0.3 0.4-0.8 0.6-0.5 0.1-1.1 0.1h-5.3q-1.4 0-2.2-0.7-0.8-0.8-0.8-2.2v-2.6h2.1v2.3q0 0.6 0.2 0.8 0.3 0.3 0.8 0.3zm-0.4-6.3v1.8h-4.5v-1.8zm6 6.3q1.2 0 2-0.1 0.8-0.2 1.7-0.7l1.5-0.8q-0.2-0.6-0.5-0.8-0.3-0.3-0.9-0.3h-3.7l0.2-2.1h3.8q1.1 0 1.7 0.4 0.6 0.3 1 1.1 0.4 0.9 0.8 2.3l-3.1 2q-1.1 0.6-2.1 0.9-1 0.2-2.5 0.2h-1.1q-0.1 0-0.1-1 0-1.1 0.1-1.1zm2-6.4v-1.8h2.2v1.8zm7.4-1.8h2v10.3h-2zm10.4 5.3q0.6 0.7 0.8 1.3 0.2 0.5 0.2 1.2 0 1.1-0.8 1.8-0.8 0.7-2.2 0.7h-4.3l-0.2-2.1h4.4q0.5 0 0.8-0.1 0.2-0.2 0.2-0.5 0-0.2-0.1-0.4-0.1-0.2-0.4-0.5l-2.7-3.3 1.4-1.4zm6 1.9q0 0.5 0.2 0.7 0.3 0.3 0.8 0.3h0.3q0.2 0 0.2 1.1 0 1-0.2 1h-0.2q-0.4 0-0.7-0.1-0.3-0.1-0.4-0.2-0.1 1.2-0.6 2.1-0.5 0.9-1.5 1.5-1 0.5-2.2 0.5h-1.4l-0.2-2.1h1.5q1.1 0 1.7-0.6 0.7-0.6 0.7-1.7v-4.9h2zm5.2 0.9q0.4 0 0.6-0.2 0.3-0.2 0.3-0.6v-2.5h2v2.6q0 1.4-0.8 2.1-0.8 0.8-2.1 0.8h-3.9q-0.2 0-0.2-1.1 0-1.1 0.2-1.1zm0.7 3.8v1.9h-4.5v-1.9zm-3.2 4.4v-1.8h1.9v1.8z"/>
	<path class="s2" d="m43 279q0.2 0 0.2 0.8 0 0.7-0.2 0.7h-1.3q0.1 0.2 0.1 0.6 0 0.8-0.5 1.4-0.4 0.7-1.3 1-0.9 0.4-2 0.4h-1.1q-1.8 0-2.7-1-1-1.1-1-2.9v-2.7h1.4v2.6q0 2.5 2.3 2.5h1.1q1.2 0 1.8-0.4 0.6-0.3 0.6-0.9 0-0.4-0.2-0.5-0.2-0.2-0.6-0.2h-2.5l0.2-1.4zm2 0q0.4 0 0.6 0-0.8-0.4-1.2-0.8-0.3-0.5-0.3-1.2 0-0.8 0.3-1.4 0.4-0.6 1-1 0.6-0.4 1.4-0.4 1.3 0 2.1 0.9 0.7 0.8 0.7 2.2v0.5q0 2.7-3.6 2.7h-3q-0.2 0-0.2-0.7 0-0.8 0.2-0.8zm2.7-0.2q0.4-0.4 0.4-1.1v-0.3q0-1.7-1.3-1.7-0.6 0-0.9 0.4-0.4 0.3-0.4 0.9 0 0.4 0.2 0.7 0.2 0.3 0.7 0.5 0.4 0.3 1.3 0.6zm-1.8-5.9v-1.4h1.7v1.4zm8.6 6.1q0.1 0 0.1 0.1 0 0.2 0 0.7 0 0.4 0 0.6 0 0.1-0.1 0.1h-0.4q-1.2 0-1.7-0.7-0.6-0.6-0.6-1.8v-6.5h1.4v6.4q0 0.6 0.2 0.8 0.3 0.3 0.7 0.3zm3.9 0q0.5 0 0.8-0.2 0.3-0.2 0.3-0.5 0-0.3-0.1-0.5-0.2-0.2-0.4-0.5l-3.2-3.1v-1.3l5.2-2 0.4 1.4-3.9 1.5 2.6 2.5q0.8 0.9 0.8 2 0 1-0.6 1.6-0.7 0.6-1.9 0.6h-3.9q-0.1 0-0.1-0.7 0-0.8 0.1-0.8zm15.5 1.6q0-0.7-0.9-0.7h-2.7v-2.6q0-1.3 0.7-2 0.8-0.7 2-0.7h1.8l0.1 1.4h-1.9q-0.6 0-0.9 0.4-0.3 0.3-0.3 0.8v1.2h1.4q2.1 0 2.1 2.2 0 0.9-0.5 1.6-0.5 0.8-1.4 1.2-0.9 0.5-2 0.5h-1q-1.8 0-2.8-1-1-1.1-1-2.9v-2.7h1.5v2.6q0 2.5 2.3 2.5h1q1.2 0 1.8-0.5 0.7-0.5 0.7-1.3zm8.8-4.3q0.5 0.6 0.7 1.1 0.2 0.4 0.2 0.9 0 1-0.7 1.6-0.7 0.6-1.9 0.6h-3.9l-0.1-1.5h4q0.5 0 0.8-0.2 0.3-0.2 0.3-0.5 0-0.2-0.1-0.4-0.1-0.3-0.4-0.6l-2.5-2.9 1-1.1zm9.6 2.7q0.1 0 0.1 0.8 0 0.7-0.1 0.7h-1.3q-0.1 1.6-1.1 2.5-0.9 0.9-2.5 0.9h-1.8l-0.1-1.5h2q1 0 1.5-0.5 0.6-0.5 0.6-1.4h-1.2q-1.5 0-2.1-0.6-0.6-0.6-0.6-1.9 0-0.9 0.3-1.6 0.3-0.7 1-1.1 0.6-0.4 1.4-0.4 1.2 0 2 0.9 0.7 0.8 0.7 2.2v1zm-5.2-1.1q0 0.6 0.3 0.8 0.3 0.3 1.1 0.3h1.1v-0.9q0-0.9-0.3-1.3-0.4-0.4-1-0.4-0.6 0-0.9 0.4-0.3 0.4-0.3 1.1zm6.2 1.1q1 0 1.7-0.2 0.7-0.1 1.5-0.6l1.7-1q-0.2-0.6-0.5-0.9-0.3-0.2-1-0.2h-3.2l0.1-1.5h3.3q0.9 0 1.5 0.3 0.5 0.3 0.9 0.9 0.3 0.7 0.6 1.9l-2.8 1.8q-0.9 0.6-1.8 0.8-0.8 0.2-2.1 0.2h-0.9q-0.2 0-0.2-0.7 0-0.8 0.2-0.8zm1.4 4.5v-1.4h1.7v1.4zm13.5-4.5q0.1 0 0.1 0.8 0 0.7-0.1 0.7h-1.2q-0.2 1.6-1.2 2.5-0.9 0.9-2.5 0.9h-1.8l-0.1-1.5h2q1 0 1.6-0.5 0.5-0.5 0.5-1.4h-1.2q-1.4 0-2.1-0.6-0.6-0.6-0.6-1.9 0-0.9 0.3-1.6 0.4-0.7 1-1.1 0.6-0.4 1.4-0.4 1.3 0 2 0.9 0.7 0.8 0.7 2.2v1zm-5.2-1.1q0 0.6 0.3 0.8 0.3 0.3 1.1 0.3h1.1v-0.9q0-0.9-0.3-1.3-0.3-0.4-1-0.4-0.6 0-0.9 0.4-0.3 0.4-0.3 1.1zm5.5 1.1q0.5 0 0.7-0.2 0.2-0.2 0.2-0.6v-0.5q0-1.3 0.7-2.1 0.8-0.8 2.1-0.8 1.3 0 1.9 0.7 0.7 0.8 0.7 2.2 0 1.3-0.7 2.1-0.7 0.7-2 0.7-0.7 0-1.2-0.2-0.5-0.2-0.7-0.6-0.3 0.4-0.7 0.6-0.4 0.2-1 0.2h-0.3q-0.2 0-0.2-0.7 0-0.8 0.2-0.8zm4.9-1.3q0-0.7-0.4-1.1-0.3-0.4-0.9-0.4-0.7 0-1 0.4-0.3 0.4-0.3 1.1 0 0.6 0.3 1 0.3 0.3 1 0.3 0.6 0 0.9-0.3 0.4-0.4 0.4-1zm9.9-0.4q0-0.7 0.3-1.1h-0.5q-0.7 0-1.1 0.4-0.4 0.3-0.4 1v6.3h-1.4v-6.3q0-1.3 0.8-2.1 0.8-0.8 2.2-0.8h2.9q1.3 0 1.9 0.7 0.6 0.6 0.6 1.7v0.9q0 1.2-0.7 1.8-0.7 0.7-2 0.7-1.3 0-2-0.6-0.6-0.7-0.6-1.8zm2.7 1.7q0.6 0 0.9-0.3 0.3-0.2 0.3-0.8v-0.6q0-0.6-0.3-0.8-0.3-0.3-0.8-0.3h-0.4q-0.5 0-0.7 0.3-0.3 0.3-0.3 0.8v0.6q0 0.6 0.3 0.8 0.3 0.3 1 0.3zm7.7 0q0.4 0 0.6-0.2 0.3-0.2 0.3-0.5 0-0.2-0.2-0.9-0.3-0.7-1.3-3.4l1.3-0.7 1.7 4.6q0.2 0.6 0.4 0.8 0.3 0.3 0.7 0.3h0.3q0.2 0 0.2 0.8 0 0.4-0.1 0.6 0 0.1-0.1 0.1h-0.3q-0.7 0-1.1-0.2-0.4-0.2-0.7-0.6-0.2 0.4-0.7 0.6-0.4 0.2-1 0.2h-3.2l-0.2-1.5zm5.4 0q-0.4-0.5-0.4-1.3 0-0.8 0.3-1.5 0.4-0.6 1-1 0.6-0.3 1.5-0.3 0.5 0 1 0.1 0.5 0.2 1 0.5l-0.4 1.2q-0.9-0.4-1.6-0.4-0.6 0-1 0.4-0.4 0.4-0.4 0.9 0 0.6 0.4 1 0.3 0.4 0.9 0.4h2.5l-0.1 1.5h-6.2q-0.1 0-0.1-0.7 0-0.8 0.1-0.8zm17.5 0q0.5 0 0.8-0.2 0.2-0.3 0.2-0.7v-2.3h1.5v2.2q0 1 1 1h0.4q0.2 0 0.2 0.8 0 0.7-0.2 0.7h-0.5q-1.2 0-1.6-0.8-0.5 0.8-1.8 0.8h-4.8q-1.2 0-1.8-0.7-0.7-0.6-0.7-1.8v-2.2h1.5v2q0 0.6 0.2 0.9 0.3 0.3 0.9 0.3zm-0.5-5.6v1.4h-3.8v-1.4zm4.9 5.6q0.4 0 0.7-0.2 0.2-0.3 0.2-0.7v-6.7h1.5v6.6q0 0.5 0.2 0.7 0.3 0.3 0.7 0.3h0.4q0.2 0 0.2 0.7 0 0.8-0.2 0.8h-0.4q-0.6 0-1.1-0.2-0.4-0.2-0.5-0.6-0.6 0.8-1.7 0.8h-0.5q-0.1 0-0.1-0.7 0-0.8 0.1-0.8zm5.2 0q-0.4-0.5-0.4-1.3 0-0.8 0.4-1.5 0.3-0.6 0.9-1 0.7-0.3 1.5-0.3 0.6 0 1.1 0.1 0.5 0.2 1 0.5l-0.5 1.2q-0.8-0.4-1.6-0.4-0.6 0-1 0.4-0.3 0.4-0.3 0.9 0 0.6 0.3 1 0.4 0.4 1 0.4h2.5l-0.2 1.5h-6.2q-0.1 0-0.1-0.7 0-0.8 0.1-0.8zm15.7-1.2q0 0.6 0.2 0.9 0.2 0.3 0.7 0.3h0.4q0 0 0.1 0.1 0 0.2 0 0.7 0 0.4 0 0.5-0.1 0.2-0.1 0.2h-0.4q-0.8 0-1.3-0.3-0.5-0.3-0.7-0.9-0.2 0.3-0.8 0.4-0.5 0.1-1 0.1-1.2 0-1.9-0.6-0.6-0.7-0.6-2 0-0.8 0.3-1.4 0.4-0.7 1-1.1 0.6-0.4 1.5-0.4h1.1v-1h1.5zm-4-0.5q0 1.1 1.2 1.1 0.6 0 1-0.2 0.3-0.3 0.3-0.7v-1.7h-1.1q-0.7 0-1 0.4-0.4 0.4-0.4 1.1zm9.1 0.9q0 1.1-0.7 1.7-0.6 0.7-1.7 0.7h-1.4q-0.2 0-0.2-0.8 0-0.7 0.2-0.7h1.4q0.4 0 0.7-0.3 0.2-0.2 0.2-0.6v-2.3h1.5zm-3.6 5.4v-1.4h1.7v1.4z"/>
	<path fillRule="evenodd" class="s3" d="m115.5 162c-26.3 0-47.5-21.2-47.5-47.5 0-26.3 21.2-47.5 47.5-47.5 26.3 0 47.5 21.2 47.5 47.5 0 26.3-21.2 47.5-47.5 47.5z"/>
	<path fillRule="evenodd" class="s4" d="m104.5 162c-26.3 0-47.5-21.2-47.5-47.5 0-26.3 21.2-47.5 47.5-47.5 26.3 0 47.5 21.2 47.5 47.5 0 26.3-21.2 47.5-47.5 47.5z"/>
	<path class="s5" d="m97 118l-15-16.3 8-7.4 14.5 15.6 14.5-15.6 8 7.4-15 16.3 15 16.3-8 7.4-14.5-15.6-14.5 15.6-8-7.4z"/>
	<path class="s6" d="m96 116l-15-16.3 8-7.4 14.5 15.6 14.5-15.6 8 7.4-15 16.3 15 16.3-8 7.4-14.5-15.6-14.5 15.6-8-7.4z"/>
</svg>