<svg width="225" height="190" viewBox="0 0 225 190" fill="none" xmlns="http://www.w3.org/2000/svg"><path fillRule="evenodd" clipRule="evenodd" d="M74.307 59.64C83.556 24.495 115.33 0 151.673 0H192.5a7.5 7.5 0 0 1 7.5 7.5V65c0 5.523-4.477 10-10 10h-27.371a20 20 0 0 0-19.246 14.561l-25.297 89.518A15 15 0 0 1 103.652 190h-50.68c-6.556 0-11.34-6.204-9.67-12.545z" fill="url(#a)"/><path d="M0 12.5C0 5.597 5.596 0 12.5 0h205v75h-205C5.596 75 0 69.404 0 62.5z" fill="url(#b)"/><g style="mix-blend-mode:plus-lighter"><mask id="d" fill="#fff"><path d="M0 12.5C0 5.597 5.596 0 12.5 0h205v75h-205C5.596 75 0 69.404 0 62.5z"/></mask><path d="M217.5 0h1.25v-1.25h-1.25zm0 75v1.25h1.25V75zM12.5 1.25h205v-2.5h-205zM216.25 0v75h2.5V0zm1.25 73.75h-205v2.5h205zM1.25 62.5v-50h-2.5v50zM12.5 73.75c-6.213 0-11.25-5.037-11.25-11.25h-2.5c0 7.594 6.156 13.75 13.75 13.75zm0-75C4.906-1.25-1.25 4.906-1.25 12.5h2.5c0-6.213 5.037-11.25 11.25-11.25z" fill="url(#c)" fill-opacity=".15" mask="url(#d)"/></g><path d="M207.499 0c5.523 0 10.001 4.478 10.001 10v57.326a7.5 7.5 0 0 1-7.5 7.5H57.86l3.947-15.186C71.056 24.495 107.83 0 144.173 0z" fill="url(#e)" fill-opacity=".5"/><path d="M214.999 0C220.522 0 225 4.478 225 10v57.326a7.5 7.5 0 0 1-7.5 7.5H70.36l3.947-15.186C83.556 24.495 115.33 0 151.673 0z" fill="url(#f)"/><path d="M74.911 59.799C84.088 24.929 115.615.625 151.673.625H217.5a6.875 6.875 0 0 1 6.875 6.875V65A9.375 9.375 0 0 1 215 74.375h-52.371a20.625 20.625 0 0 0-19.847 15.016l-25.297 89.518a14.376 14.376 0 0 1-13.833 10.466h-50.68c-6.147 0-10.63-5.816-9.066-11.761z" stroke="url(#g)" stroke-opacity=".2" stroke-width="1.25" style="mix-blend-mode:plus-lighter"/><defs><linearGradient id="a" x1="78.124" y1="190" x2="218.609" y2="23.03" gradientUnits="userSpaceOnUse"><stop stop-color="#48C8FC"/><stop offset="1" stop-color="#59DEFF"/></linearGradient><linearGradient id="b" x1="0" y1="13.672" x2="96.016" y2="39.522" gradientUnits="userSpaceOnUse"><stop stop-color="#C0A0FF"/><stop offset="1" stop-color="#A276FF"/></linearGradient><linearGradient id="e" x1="57.86" y1="74.826" x2="122.273" y2="11.817" gradientUnits="userSpaceOnUse"><stop stop-color="#7A4ADC" stop-opacity=".3"/><stop offset="1" stop-color="#834FEA"/></linearGradient><linearGradient id="f" x1="225" y1="45.239" x2="77.187" y2="68.163" gradientUnits="userSpaceOnUse"><stop stop-color="#1E4FFF"/><stop offset="1" stop-color="#5286FF"/></linearGradient><radialGradient id="c" cx="0" cy="0" r="1" gradientUnits="userSpaceOnUse" gradientTransform="matrix(11.07351 54.27773 -95.52253 19.4881 9.979 9.41)"><stop stop-color="#fff"/><stop offset="1" stop-color="#fff" stop-opacity="0"/></radialGradient><radialGradient id="g" cx="0" cy="0" r="1" gradientUnits="userSpaceOnUse" gradientTransform="matrix(69.90506 18.05525 -26.80013 103.76287 69.833 73.903)"><stop stopColor="#fff"/><stop offset="1" stopColor="#fff" stop-opacity="0"/></radialGradient></defs></svg>