<svg width="220" height="242" viewBox="0 0 220 242" fill="none" xmlns="http://www.w3.org/2000/svg">
<ellipse cx="110" cy="109" rx="109.5" ry="108.5" fill="url(#paint0_linear_11682_50920)"/>
<path d="M20.6961 231.372C20.9628 231.372 21.1761 231.319 21.3361 231.212C21.4961 231.105 21.5761 230.956 21.5761 230.764C21.5761 230.625 21.5068 230.369 21.3681 229.996C21.2401 229.612 20.9255 228.753 20.4241 227.42L19.9121 226.044L21.8001 225.148L23.6561 230.332C23.7841 230.705 23.9281 230.972 24.0881 231.132C24.2588 231.292 24.4828 231.372 24.7601 231.372H25.1761C25.2828 231.372 25.3361 231.74 25.3361 232.476C25.3361 232.913 25.3201 233.196 25.2881 233.324C25.2561 233.441 25.2188 233.5 25.1761 233.5H24.6641C24.1948 233.5 23.8001 233.436 23.4801 233.308C23.1601 233.169 22.8988 232.951 22.6961 232.652C22.4935 232.951 22.2321 233.169 21.9121 233.308C21.6028 233.436 21.2188 233.5 20.7601 233.5H17.1121L16.9521 231.372H20.6961ZM26.4039 231.372C26.7665 231.372 27.0385 231.287 27.2199 231.116C27.4119 230.945 27.5079 230.711 27.5079 230.412V227.996H29.5399V230.412C29.5399 231.052 29.9079 231.372 30.6439 231.372C31.0065 231.372 31.2785 231.287 31.4599 231.116C31.6519 230.945 31.7479 230.711 31.7479 230.412V227.996H33.7799V230.412C33.7799 231.052 34.1212 231.372 34.8039 231.372C35.4865 231.372 35.8279 231.052 35.8279 230.412V227.996H37.8599V230.428C37.8599 231.399 37.5879 232.156 37.0439 232.7C36.5105 233.233 35.7639 233.5 34.8039 233.5C34.2385 233.5 33.7852 233.431 33.4439 233.292C33.1025 233.143 32.8465 232.929 32.6759 232.652C32.4732 232.929 32.2065 233.143 31.8759 233.292C31.5559 233.431 31.1452 233.5 30.6439 233.5C30.0572 233.5 29.5879 233.431 29.2359 233.292C28.8839 233.143 28.6225 232.929 28.4519 232.652C28.0359 233.217 27.3532 233.5 26.4039 233.5H25.1719C25.0652 233.5 25.0119 233.159 25.0119 232.476C25.0119 231.74 25.0652 231.372 25.1719 231.372H26.4039ZM33.6359 221.996V223.74H31.7159V221.996H33.6359ZM34.9319 224.508V226.332H30.4199V224.508H34.9319ZM47.1408 229.916C47.1408 229.425 47.2368 229.047 47.4288 228.78H46.9008C46.4634 228.78 46.1328 228.897 45.9088 229.132C45.6848 229.356 45.5728 229.681 45.5728 230.108V237.308H43.5408V230.108C43.5408 229.073 43.8501 228.252 44.4688 227.644C45.0874 227.036 45.9248 226.732 46.9808 226.732H50.4368C51.4608 226.732 52.2234 226.983 52.7248 227.484C53.2261 227.975 53.4768 228.695 53.4768 229.644V230.524C53.4768 231.484 53.1994 232.22 52.6448 232.732C52.0901 233.244 51.2954 233.5 50.2608 233.5C49.2368 233.5 48.4581 233.26 47.9248 232.78C47.4021 232.289 47.1408 231.601 47.1408 230.716V229.916ZM50.3408 231.388C50.7034 231.388 50.9808 231.319 51.1728 231.18C51.3648 231.031 51.4608 230.78 51.4608 230.428V229.804C51.4608 229.473 51.3701 229.217 51.1888 229.036C51.0074 228.855 50.7514 228.764 50.4208 228.764H50.1328C49.8128 228.764 49.5674 228.86 49.3968 229.052C49.2368 229.244 49.1568 229.495 49.1568 229.804V230.348C49.1568 230.743 49.2474 231.015 49.4288 231.164C49.6101 231.313 49.9141 231.388 50.3408 231.388ZM59.0749 231.372C59.1282 231.372 59.1655 231.441 59.1869 231.58C59.2189 231.719 59.2349 232.017 59.2349 232.476C59.2349 232.903 59.2189 233.18 59.1869 233.308C59.1655 233.436 59.1282 233.5 59.0749 233.5H58.4989C57.6029 233.5 56.9202 233.244 56.4509 232.732C55.9922 232.209 55.7629 231.468 55.7629 230.508V223.196H57.8109V230.364C57.8109 230.705 57.8749 230.961 58.0029 231.132C58.1415 231.292 58.3549 231.372 58.6429 231.372H59.0749ZM64.3741 226.572C65.0355 226.572 65.5741 226.684 65.9901 226.908C66.4061 227.132 66.7528 227.511 67.0301 228.044C67.3075 228.567 67.5581 229.319 67.7821 230.3L66.7741 230.94C66.8701 231.079 67.0248 231.185 67.2381 231.26C67.4515 231.335 67.7021 231.372 67.9901 231.372H68.9501C69.0568 231.372 69.1101 231.74 69.1101 232.476C69.1101 232.913 69.0941 233.196 69.0621 233.324C69.0301 233.441 68.9928 233.5 68.9501 233.5H67.8781C67.2808 233.5 66.7795 233.383 66.3741 233.148C65.9795 232.913 65.6221 232.513 65.3021 231.948L64.6941 232.332C63.9688 232.78 63.2755 233.089 62.6141 233.26C61.9528 233.42 61.1368 233.5 60.1661 233.5H59.0781C58.9715 233.5 58.9181 233.159 58.9181 232.476C58.9181 231.74 58.9715 231.372 59.0781 231.372H60.2621C61.0728 231.372 61.7395 231.319 62.2621 231.212C62.7955 231.105 63.3448 230.892 63.9101 230.572L65.3981 229.724C65.2915 229.319 65.1315 229.047 64.9181 228.908C64.7155 228.759 64.4061 228.684 63.9901 228.684H60.3261L60.5661 226.572H64.3741ZM61.6701 236.988V235.164H63.8461V236.988H61.6701ZM73.4491 230.652C73.4491 231.537 73.1825 232.236 72.6491 232.748C72.1265 233.249 71.4171 233.5 70.5211 233.5H68.9531C68.8465 233.5 68.7931 233.159 68.7931 232.476C68.7931 231.74 68.8465 231.372 68.9531 231.372H70.5211C70.7878 231.372 71.0011 231.303 71.1611 231.164C71.3318 231.015 71.4171 230.812 71.4171 230.556V227.996H73.4491V230.652ZM70.6491 226.332V224.508H72.8251V226.332H70.6491ZM75.7316 223.196H77.7796V233.5H75.7316V223.196ZM91.8273 231.372C92.0939 231.372 92.3073 231.303 92.4673 231.164C92.6379 231.015 92.7233 230.817 92.7233 230.572V227.996H94.7553V230.492C94.7553 231.079 95.0539 231.372 95.6513 231.372H96.2593C96.3659 231.372 96.4193 231.74 96.4193 232.476C96.4193 233.159 96.3659 233.5 96.2593 233.5H95.5553C94.6593 233.5 94.0513 233.244 93.7313 232.732C93.5393 232.999 93.2833 233.196 92.9633 233.324C92.6539 233.441 92.2753 233.5 91.8273 233.5H86.5793C85.6193 233.5 84.8833 233.249 84.3713 232.748C83.8593 232.236 83.6033 231.505 83.6033 230.556V227.996H85.6353V230.284C85.6353 230.647 85.7153 230.919 85.8753 231.1C86.0459 231.281 86.3126 231.372 86.6753 231.372H91.8273ZM91.4433 225.068V226.892H86.9313V225.068H91.4433ZM98.1216 231.372C98.3883 231.372 98.6016 231.303 98.7616 231.164C98.9323 231.015 99.0176 230.812 99.0176 230.556V227.996H101.05V230.492C101.05 231.079 101.348 231.372 101.946 231.372H102.554C102.66 231.372 102.714 231.729 102.714 232.444C102.714 233.148 102.66 233.5 102.554 233.5H101.85C100.954 233.5 100.346 233.244 100.026 232.732C99.8336 232.999 99.5776 233.196 99.2576 233.324C98.9483 233.441 98.5696 233.5 98.1216 233.5H96.2656C96.159 233.5 96.1056 233.159 96.1056 232.476C96.1056 231.74 96.159 231.372 96.2656 231.372H98.1216ZM99.6256 235.164V236.988H95.1136V235.164H99.6256ZM104.291 231.372C104.11 231.18 103.966 230.929 103.859 230.62C103.763 230.311 103.715 230.001 103.715 229.692C103.715 229.105 103.854 228.567 104.131 228.076C104.419 227.585 104.808 227.196 105.299 226.908C105.79 226.62 106.334 226.476 106.931 226.476C107.571 226.476 108.131 226.609 108.611 226.876C109.102 227.132 109.48 227.5 109.747 227.98C110.024 228.46 110.163 229.004 110.163 229.612C110.163 230.316 109.939 230.903 109.491 231.372H111.331C111.438 231.372 111.491 231.74 111.491 232.476C111.491 233.159 111.438 233.5 111.331 233.5H109.155C108.547 233.5 108.072 233.479 107.731 233.436C107.39 233.383 107.123 233.297 106.931 233.18C106.739 233.297 106.462 233.383 106.099 233.436C105.747 233.479 105.288 233.5 104.723 233.5H102.547C102.44 233.5 102.387 233.159 102.387 232.476C102.387 231.74 102.44 231.372 102.547 231.372H104.291ZM106.931 228.508C106.568 228.508 106.275 228.625 106.051 228.86C105.838 229.084 105.731 229.367 105.731 229.708C105.731 230.039 105.838 230.353 106.051 230.652C106.264 230.94 106.558 231.18 106.931 231.372C107.326 231.191 107.624 230.951 107.827 230.652C108.03 230.343 108.131 230.028 108.131 229.708C108.131 229.335 108.024 229.041 107.811 228.828C107.598 228.615 107.304 228.508 106.931 228.508ZM109.187 223.052V224.876H104.675V223.052H109.187ZM113.632 231.372C113.248 231.137 112.96 230.865 112.768 230.556C112.587 230.236 112.496 229.852 112.496 229.404C112.496 228.807 112.635 228.263 112.912 227.772C113.189 227.281 113.573 226.897 114.064 226.62C114.555 226.332 115.109 226.188 115.728 226.188C116.773 226.188 117.579 226.503 118.144 227.132C118.72 227.761 119.008 228.631 119.008 229.74V230.284C119.008 231.361 118.64 232.167 117.904 232.7C117.179 233.233 116.101 233.5 114.672 233.5H111.328C111.221 233.5 111.168 233.159 111.168 232.476C111.168 231.74 111.221 231.372 111.328 231.372H113.152H113.632ZM116.624 231.212C116.869 230.956 116.992 230.572 116.992 230.06V229.82C116.992 228.753 116.565 228.22 115.712 228.22C115.381 228.22 115.099 228.337 114.864 228.572C114.64 228.796 114.528 229.073 114.528 229.404C114.528 229.788 114.683 230.119 114.992 230.396C115.301 230.663 115.845 230.935 116.624 231.212ZM114.576 224.732V222.908H116.752V224.732H114.576ZM128.766 231.372C128.873 231.372 128.926 231.74 128.926 232.476C128.926 233.159 128.873 233.5 128.766 233.5H127.502C127.395 234.695 126.974 235.628 126.238 236.3C125.502 236.983 124.547 237.324 123.374 237.324H121.182L121.006 235.196H123.502C124.131 235.196 124.622 235.041 124.974 234.732C125.326 234.433 125.502 234.023 125.502 233.5H124.382C123.23 233.5 122.403 233.26 121.902 232.78C121.411 232.3 121.166 231.537 121.166 230.492C121.166 229.809 121.299 229.201 121.566 228.668C121.833 228.135 122.206 227.719 122.686 227.42C123.177 227.121 123.742 226.972 124.382 226.972C125.363 226.972 126.131 227.292 126.686 227.932C127.251 228.572 127.534 229.457 127.534 230.588V231.372H128.766ZM123.182 230.412C123.182 230.753 123.273 231.004 123.454 231.164C123.646 231.313 123.982 231.388 124.462 231.388H125.502V230.556C125.502 230.044 125.401 229.655 125.198 229.388C124.995 229.121 124.702 228.988 124.318 228.988C123.955 228.988 123.673 229.121 123.47 229.388C123.278 229.644 123.182 229.985 123.182 230.412ZM129.182 231.372C129.48 231.372 129.688 231.313 129.806 231.196C129.934 231.079 129.998 230.887 129.998 230.62V230.172C129.998 229.137 130.291 228.321 130.878 227.724C131.475 227.116 132.28 226.812 133.294 226.812C134.307 226.812 135.08 227.105 135.614 227.692C136.158 228.268 136.43 229.1 136.43 230.188C136.43 231.233 136.147 232.049 135.582 232.636C135.016 233.212 134.227 233.5 133.214 233.5C132.68 233.5 132.238 233.436 131.886 233.308C131.534 233.169 131.272 232.977 131.102 232.732C130.899 232.999 130.643 233.196 130.334 233.324C130.035 233.441 129.651 233.5 129.182 233.5H128.766C128.659 233.5 128.606 233.159 128.606 232.476C128.606 231.74 128.659 231.372 128.766 231.372H129.182ZM134.414 230.188C134.414 229.292 134.014 228.844 133.214 228.844C132.414 228.844 132.014 229.292 132.014 230.188C132.014 230.572 132.11 230.871 132.302 231.084C132.504 231.287 132.808 231.388 133.214 231.388C133.619 231.388 133.918 231.292 134.11 231.1C134.312 230.897 134.414 230.593 134.414 230.188ZM145.559 231.372C145.613 231.372 145.65 231.441 145.671 231.58C145.703 231.719 145.719 232.017 145.719 232.476C145.719 232.903 145.703 233.18 145.671 233.308C145.65 233.436 145.613 233.5 145.559 233.5H144.983C144.087 233.5 143.405 233.244 142.935 232.732C142.477 232.209 142.247 231.468 142.247 230.508V223.196H144.295V230.364C144.295 230.705 144.359 230.961 144.487 231.132C144.626 231.292 144.839 231.372 145.127 231.372H145.559ZM150.059 230.652C150.059 231.537 149.792 232.236 149.259 232.748C148.736 233.249 148.027 233.5 147.131 233.5H145.562C145.456 233.5 145.402 233.159 145.402 232.476C145.402 231.74 145.456 231.372 145.562 231.372H147.131C147.397 231.372 147.611 231.303 147.771 231.164C147.941 231.015 148.027 230.812 148.027 230.556V227.996H150.059V230.652ZM145.755 236.988V235.164H147.931V236.988H145.755ZM163.952 231.372C164.219 231.372 164.432 231.303 164.592 231.164C164.763 231.015 164.848 230.817 164.848 230.572V227.996H166.88V230.492C166.88 231.079 167.179 231.372 167.776 231.372H168.384C168.491 231.372 168.544 231.74 168.544 232.476C168.544 233.159 168.491 233.5 168.384 233.5H167.68C166.784 233.5 166.176 233.244 165.856 232.732C165.664 232.999 165.408 233.196 165.088 233.324C164.779 233.441 164.4 233.5 163.952 233.5H158.704C157.744 233.5 157.008 233.249 156.496 232.748C155.984 232.236 155.728 231.505 155.728 230.556V227.996H157.76V230.284C157.76 230.647 157.84 230.919 158 231.1C158.171 231.281 158.438 231.372 158.8 231.372H163.952ZM163.568 225.068V226.892H159.056V225.068H163.568ZM169.575 231.372C170.385 231.372 171.052 231.319 171.575 231.212C172.108 231.105 172.657 230.892 173.223 230.572L174.711 229.724C174.604 229.319 174.444 229.047 174.231 228.908C174.028 228.759 173.719 228.684 173.303 228.684H169.639L169.879 226.572H173.687C174.359 226.572 174.903 226.689 175.319 226.924C175.735 227.148 176.081 227.537 176.359 228.092C176.647 228.636 176.903 229.404 177.127 230.396L174.007 232.332C173.281 232.78 172.588 233.089 171.927 233.26C171.265 233.42 170.449 233.5 169.479 233.5H168.391C168.284 233.5 168.231 233.159 168.231 232.476C168.231 231.74 168.284 231.372 168.391 231.372H169.575ZM171.527 224.956V223.132H173.703V224.956H171.527ZM178.95 223.196H180.998V233.5H178.95V223.196ZM189.323 228.476C189.717 228.935 189.995 229.351 190.155 229.724C190.315 230.097 190.395 230.492 190.395 230.908C190.395 231.665 190.123 232.289 189.579 232.78C189.045 233.26 188.299 233.5 187.339 233.5H183.003L182.843 231.372H187.243C187.573 231.372 187.829 231.319 188.011 231.212C188.192 231.105 188.283 230.956 188.283 230.764C188.283 230.625 188.245 230.492 188.171 230.364C188.096 230.225 187.957 230.039 187.755 229.804L185.003 226.572L186.475 225.116L189.323 228.476ZM195.286 230.412C195.286 230.743 195.366 230.988 195.526 231.148C195.696 231.297 195.963 231.372 196.326 231.372H196.614C196.72 231.372 196.774 231.74 196.774 232.476C196.774 233.159 196.72 233.5 196.614 233.5H196.358C196.134 233.5 195.926 233.473 195.734 233.42C195.542 233.356 195.392 233.271 195.286 233.164C195.254 233.964 195.056 234.679 194.694 235.308C194.342 235.937 193.846 236.428 193.206 236.78C192.566 237.143 191.819 237.324 190.965 237.324H189.621L189.445 235.196H190.934C191.67 235.196 192.24 234.993 192.646 234.588C193.051 234.193 193.254 233.633 193.254 232.908V227.996H195.286V230.412ZM200.513 231.372C200.769 231.372 200.977 231.303 201.137 231.164C201.308 231.015 201.393 230.812 201.393 230.556V227.996H203.425V230.652C203.425 231.537 203.159 232.236 202.625 232.748C202.103 233.249 201.393 233.5 200.497 233.5H196.609C196.503 233.5 196.449 233.159 196.449 232.476C196.449 231.74 196.503 231.372 196.609 231.372H200.513ZM201.233 235.164V236.988H196.721V235.164H201.233ZM198.065 239.5V237.756H199.889V239.5H198.065Z" fill="#1A1A1A"/>
<circle cx="115.5" cy="114.5" r="47.5" fill="url(#paint1_linear_11682_50920)"/>
<circle cx="104.5" cy="114.5" r="47.5" fill="url(#paint2_linear_11682_50920)"/>
<path d="M82 115.309L98.4452 134L129 101" stroke="#64A859" stroke-width="11" stroke-linejoin="round"/>
<path d="M81 112.309L97.4452 131L128 98" stroke="white" stroke-width="11" stroke-linejoin="round"/>
<defs>
<linearGradient id="paint0_linear_11682_50920" x1="110" y1="0.5" x2="110" y2="217.5" gradientUnits="userSpaceOnUse">
<stop stop-color="#EBEBEB"/>
<stop offset="0.779055" stop-color="#EBEBEB" stop-opacity="0"/>
</linearGradient>
<linearGradient id="paint1_linear_11682_50920" x1="115.5" y1="67" x2="115.5" y2="162" gradientUnits="userSpaceOnUse">
<stop stop-color="#7AC64C"/>
<stop offset="1" stop-color="#57975F"/>
</linearGradient>
<linearGradient id="paint2_linear_11682_50920" x1="104.5" y1="67" x2="104.5" y2="162" gradientUnits="userSpaceOnUse">
<stop stop-color="#C8F792"/>
<stop offset="1" stop-color="#74C246"/>
</linearGradient>
</defs>
</svg>
